# xmcd
# Track frame offsets:
# 150
# 14721
# 26648
# 42783
# 51141
# 56322
# 62092
# 74384
# 91512
# 103650
# 118508
# 128518
# 138595
# 154626
# 174734
# 197944
# 221699
# 237572
# 247586
#
# Disc length: 3673 seconds
# Revision: 0
# Processed by: cddbd v1.4PL0 Copyright (c) Steve Scherf et al.
# Submitted via: VisiTrax 2.9.5.181 - For more info visit www.synapsa.com
#
DISCID=060e5713
DTITLE=Glen Campbell (live) - Southern Nights
DYEAR=1900
DGENRE=Country
TTITLE0=rhinestone cowboy
TTITLE1=it's only make believe
TTITLE2=crying
TTITLE3=wichita lineman
TTITLE4=galveston
TTITLE5=country boy (you  got your feet in LA)
TTITLE6=by the time I get to phoenix
TTITLE7=southern nights
TTITLE8=heartbreak number three
TTITLE9=I'm so lonesome I could cry
TTITLE10=gentle on my mind
TTITLE11=dreams of the everyday housewife
TTITLE12=please come to boston
TTITLE13=amazing grace
TTITLE14=bluegrass medley
TTITLE15=milk cow blues
TTITLE16=rollin' (in my sweet baby's arms)
TTITLE17=try a little kindness
TTITLE18=mull of kintyre
EXTD=
EXTT0=
EXTT1=
EXTT2=
EXTT3=
EXTT4=
EXTT5=
EXTT6=
EXTT7=
EXTT8=
EXTT9=
EXTT10=
EXTT11=
EXTT12=
EXTT13=
EXTT14=
EXTT15=
EXTT16=
EXTT17=
EXTT18=
PLAYORDER=
